<?xml version="1.0" ?><!DOCTYPE svg  PUBLIC '-//W3C//DTD SVG 1.1//EN'  'http://www.w3.org/Graphics/SVG/1.1/DTD/svg11.dtd'><svg enable-background="new 0 0 512 512" id="Layer_1" version="1.1" viewBox="0 0 512 512" xml:space="preserve" xmlns="http://www.w3.org/2000/svg" xmlns:xlink="http://www.w3.org/1999/xlink"><g><circle cx="256" cy="256" fill="#D45245" r="244.5"/><g><polygon points="257.3,256.1 254.7,256.5 254.7,255.5   "/><path d="M301.6,398.1v10.3h-91.2v-9.3c15.4,0,27.8-18.3,27.8-41c0-0.4,0-0.7,0-1.1h35.7    C273.8,379.8,286.3,398.1,301.6,398.1z" fill="#CCCCCC"/><path d="M418.9,331.8H93.1v-209c0-10.6,8.6-19.3,19.3-19.3h287.2c10.6,0,19.3,8.6,19.3,19.3V331.8z" fill="#192128"/><rect fill="#323D44" height="194.3" width="291.8" x="110.1" y="120.5"/><polygon opacity="0.1" points="110.1,314.8 401.9,120.5 401.9,314.8   "/><path d="M93.1,338.7c0,10.6,8.6,19.3,19.3,19.3h287.2c10.6,0,19.3-8.6,19.3-19.3v-7.8H93.1V338.7z" fill="#DDDDDD"/><circle cx="256" cy="344.5" fill="#192128" r="7.4"/></g></g></svg>